<?xml version="1.0" encoding="UTF-8" ?>
<!DOCTYPE svg PUBLIC "-//W3C//DTD SVG 1.1//EN" "http://www.w3.org/Graphics/SVG/1.1/DTD/svg11.dtd">
<svg width="599pt" height="133pt" viewBox="0 0 599 133" version="1.1" xmlns="http://www.w3.org/2000/svg">
<path fill="#ffffff" d=" M 0.00 0.00 L 38.40 0.00 C 25.49 22.05 12.87 44.26 0.00 66.33 L 0.00 0.00 Z" />
<path fill="#4fb648" d=" M 38.40 0.00 L 115.58 0.00 C 119.63 8.53 125.08 16.34 129.40 24.75 C 126.15 29.78 123.18 34.98 120.08 40.10 C 115.19 32.15 110.70 23.97 105.98 15.92 C 86.59 15.82 67.20 16.00 47.81 15.82 C 37.83 32.69 27.99 49.65 18.43 66.75 C 28.21 83.38 37.89 100.09 47.36 116.90 C 66.87 117.37 86.41 116.99 105.93 117.09 C 115.58 100.34 125.47 83.69 134.83 66.79 C 132.79 61.05 128.80 56.04 125.96 50.60 C 129.87 46.69 133.75 42.75 137.70 38.88 C 142.62 47.44 147.56 55.98 152.52 64.51 C 153.52 65.73 153.51 67.25 152.52 68.48 C 140.02 89.95 127.73 111.56 115.17 133.00 L 38.30 133.00 C 25.59 110.82 12.73 88.74 0.00 66.58 L 0.00 66.33 C 12.87 44.26 25.49 22.05 38.40 0.00 Z" />
<path fill="#ffffff" d=" M 115.58 0.00 L 599.00 0.00 L 599.00 133.00 L 115.17 133.00 C 127.73 111.56 140.02 89.95 152.52 68.48 C 153.51 67.25 153.52 65.73 152.52 64.51 C 147.56 55.98 142.62 47.44 137.70 38.88 C 133.75 42.75 129.87 46.69 125.96 50.60 C 115.99 60.42 106.30 70.53 96.17 80.18 C 103.94 66.71 112.19 53.51 120.08 40.10 C 123.18 34.98 126.15 29.78 129.40 24.75 C 125.08 16.34 119.63 8.53 115.58 0.00 Z" />
<path fill="#ebe611" d=" M 18.43 66.75 C 27.99 49.65 37.83 32.69 47.81 15.82 C 67.20 16.00 86.59 15.82 105.98 15.92 C 110.70 23.97 115.19 32.15 120.08 40.10 C 112.19 53.51 103.94 66.71 96.17 80.18 C 106.30 70.53 115.99 60.42 125.96 50.60 C 128.80 56.04 132.79 61.05 134.83 66.79 C 125.47 83.69 115.58 100.34 105.93 117.09 C 86.41 116.99 66.87 117.37 47.36 116.90 C 37.89 100.09 28.21 83.38 18.43 66.75 Z" />
<path fill="#4fb648" d=" M 193.61 34.79 C 200.35 34.03 207.47 33.73 213.95 36.06 C 220.26 38.46 223.20 45.27 224.25 51.49 C 225.67 60.54 225.80 69.86 224.25 78.90 C 223.23 85.05 220.13 91.66 213.89 93.93 C 207.58 96.19 200.67 95.97 194.08 95.35 C 189.22 94.88 184.24 92.72 181.66 88.38 C 177.65 81.70 177.44 73.60 177.22 66.03 C 177.35 58.11 177.60 49.73 181.48 42.61 C 183.90 38.14 188.66 35.42 193.61 34.79 Z" />
<path fill="#4fb648" d=" M 560.71 38.83 C 564.47 34.52 570.68 34.11 576.01 34.21 C 582.85 34.47 589.77 34.92 596.45 36.57 C 596.37 39.08 596.35 41.60 596.35 44.12 C 588.29 43.78 580.21 43.05 572.15 43.44 C 568.18 43.43 566.88 47.71 567.13 50.96 C 567.20 54.17 566.57 59.03 570.51 60.22 C 576.88 61.42 583.50 59.73 589.83 61.34 C 594.51 62.62 598.02 67.24 597.98 72.10 C 597.96 76.72 598.11 81.35 597.89 85.97 C 597.12 91.73 591.47 95.44 585.98 95.80 C 577.08 96.37 568.05 95.71 559.35 93.71 C 559.36 91.18 559.36 88.64 559.33 86.11 C 567.27 86.48 575.23 87.26 583.18 86.76 C 586.17 86.64 589.08 84.27 588.84 81.08 C 588.88 77.49 589.77 71.85 585.24 70.60 C 578.33 69.65 570.92 71.63 564.34 68.67 C 559.50 66.49 557.40 60.95 557.52 55.93 C 557.54 50.18 556.72 43.56 560.71 38.83 Z" />
<path fill="#4fb648" d=" M 232.75 34.74 C 241.80 34.75 250.86 34.69 259.91 34.75 C 264.85 34.77 270.03 37.16 272.25 41.76 C 275.10 47.72 274.88 54.70 273.71 61.05 C 272.79 65.99 269.34 70.82 264.14 71.72 C 256.94 72.89 249.68 71.25 242.50 70.60 C 242.46 78.86 242.57 87.13 242.44 95.39 C 239.21 95.36 235.98 95.36 232.75 95.37 C 232.72 75.16 232.72 54.95 232.75 34.74 Z" />
<path fill="#4fb648" d=" M 287.48 36.58 C 290.55 34.52 294.41 34.62 297.96 34.78 C 305.90 35.20 313.87 35.33 321.80 36.05 C 321.76 38.69 321.76 41.32 321.79 43.96 C 313.16 44.11 304.51 43.86 295.88 44.07 C 294.22 44.02 292.59 45.32 292.73 47.08 C 292.45 51.57 292.71 56.07 292.64 60.56 C 301.14 60.81 309.64 61.12 318.14 61.41 C 318.13 64.05 318.13 66.69 318.13 69.32 C 309.64 69.60 301.15 69.85 292.66 70.13 C 292.69 74.39 292.46 78.66 292.75 82.92 C 292.65 84.76 294.19 86.41 296.07 86.29 C 304.63 86.49 313.20 86.30 321.76 86.37 C 321.77 89.01 321.78 91.65 321.68 94.30 C 313.11 94.85 304.53 95.28 295.95 95.64 C 292.31 95.79 288.22 95.27 285.63 92.43 C 283.31 89.90 282.92 86.31 282.98 83.03 C 283.05 70.70 282.95 58.37 283.02 46.04 C 282.99 42.45 284.36 38.61 287.48 36.58 Z" />
<path fill="#4fb648" d=" M 330.00 34.74 C 333.33 34.72 336.66 34.72 339.99 34.77 C 348.88 48.94 357.79 63.09 366.80 77.17 C 366.97 63.03 366.81 48.88 366.88 34.74 C 370.08 34.73 373.28 34.73 376.48 34.73 C 376.50 54.95 376.52 75.16 376.47 95.38 C 373.27 95.36 370.07 95.36 366.87 95.36 C 357.83 81.51 349.32 67.30 339.98 53.67 C 339.73 67.55 339.92 81.44 339.89 95.33 C 336.59 95.38 333.29 95.38 330.00 95.35 C 330.00 75.15 330.00 54.94 330.00 34.74 Z" />
<path fill="#4fb648" d=" M 406.87 34.74 C 410.06 34.75 413.25 34.74 416.45 34.65 C 416.94 50.73 416.39 66.84 416.71 82.92 C 416.60 84.73 418.18 86.35 420.01 86.18 C 428.02 86.31 436.03 86.21 444.05 86.21 C 444.15 89.26 444.16 92.31 444.12 95.36 C 435.73 95.37 427.35 95.36 418.96 95.38 C 415.68 95.37 412.06 94.87 409.68 92.38 C 407.18 89.93 406.88 86.24 406.86 82.94 C 406.87 66.87 406.86 50.81 406.87 34.74 Z" />
<path fill="#4fb648" d=" M 449.67 95.35 C 456.71 75.13 463.66 54.87 470.85 34.70 C 474.32 34.76 477.79 34.76 481.26 34.65 C 488.39 54.78 494.96 75.12 501.67 95.40 C 498.13 95.37 494.61 95.38 491.08 95.31 C 489.55 90.41 488.20 85.45 486.33 80.68 C 479.24 80.89 472.16 80.67 465.08 80.80 C 463.55 85.70 462.06 90.61 460.27 95.42 C 456.73 95.36 453.20 95.36 449.67 95.35 Z" />
<path fill="#4fb648" d=" M 508.75 34.73 C 517.17 34.75 525.59 34.71 534.01 34.74 C 539.00 34.76 544.35 36.68 547.17 41.03 C 550.40 46.10 550.63 52.84 548.33 58.33 C 547.26 60.99 544.94 62.89 542.25 63.76 C 546.20 65.28 549.15 68.79 549.97 72.94 C 551.09 78.50 550.75 84.80 547.45 89.60 C 544.46 93.85 538.97 95.34 534.02 95.36 C 525.59 95.38 517.17 95.36 508.75 95.36 C 508.73 75.15 508.71 54.94 508.75 34.73 Z" />
<path fill="#ffffff" d=" M 193.27 44.42 C 198.02 42.90 203.24 43.11 208.11 44.00 C 212.16 44.87 214.12 49.06 214.72 52.80 C 215.94 59.91 215.87 67.22 215.21 74.39 C 214.75 78.80 213.28 84.16 208.54 85.69 C 203.84 87.03 198.72 86.97 194.00 85.77 C 189.97 84.64 188.14 80.38 187.61 76.58 C 186.61 69.10 186.66 61.46 187.66 53.98 C 188.30 50.34 189.48 45.95 193.27 44.42 Z" />
<path fill="#ffffff" d=" M 242.59 63.39 C 242.43 56.80 242.43 50.19 242.59 43.59 C 248.35 43.81 254.14 43.34 259.89 43.82 C 264.28 44.94 264.84 50.29 264.73 54.06 C 264.60 57.42 264.00 62.18 260.05 63.09 C 254.26 63.73 248.41 63.18 242.59 63.39 Z" />
<path fill="#ffffff" d=" M 518.51 43.49 C 523.98 43.66 529.49 43.16 534.94 43.76 C 542.59 45.14 541.95 59.02 533.95 59.25 C 528.81 59.55 523.65 59.28 518.51 59.37 C 518.49 54.08 518.49 48.79 518.51 43.49 Z" />
<path fill="#ffffff" d=" M 467.94 71.86 C 470.76 63.98 473.13 55.92 476.31 48.17 C 478.68 56.07 481.34 63.89 483.98 71.71 C 478.64 72.03 473.28 71.81 467.94 71.86 Z" />
<path fill="#ffffff" d=" M 0.00 66.58 C 12.73 88.74 25.59 110.82 38.30 133.00 L 0.00 133.00 L 0.00 66.58 Z" />
<path fill="#ffffff" d=" M 518.53 67.86 C 524.03 68.04 529.58 67.50 535.05 68.17 C 539.81 69.18 541.35 74.82 540.79 79.05 C 540.75 82.58 538.34 86.24 534.57 86.45 C 529.20 86.82 523.81 86.66 518.44 86.52 C 518.58 80.30 518.43 74.08 518.53 67.86 Z" />
</svg>
